<svg id="BACKGROUND" xmlns="http://www.w3.org/2000/svg" xmlns:xlink="http://www.w3.org/1999/xlink" viewBox="0 0 750 500"><defs><style>.cls-1{fill:none;}.cls-2{clip-path:url(#clip-path);}.cls-3{fill:url(#linear-gradient);}.cls-4{fill:url(#linear-gradient-2);}.cls-5{fill:url(#linear-gradient-3);}.cls-6{fill:url(#linear-gradient-4);}.cls-7{fill:url(#linear-gradient-5);}.cls-8{fill:url(#linear-gradient-6);}.cls-9{fill:url(#linear-gradient-7);}.cls-10{fill:url(#linear-gradient-8);}.cls-11{fill:url(#linear-gradient-9);}.cls-12{fill:url(#linear-gradient-10);}.cls-13{fill:url(#linear-gradient-11);}.cls-14{fill:url(#linear-gradient-12);}.cls-15{fill:url(#linear-gradient-13);}.cls-16{fill:url(#linear-gradient-14);}.cls-17{fill:url(#linear-gradient-15);}.cls-18{fill:url(#linear-gradient-16);}</style><clipPath id="clip-path"><rect class="cls-1" width="750" height="500"/></clipPath><linearGradient id="linear-gradient" x1="-6417.1" y1="-8445.67" x2="-6344.43" y2="-8350.12" gradientTransform="translate(-5086.24 -6821.57) rotate(180) scale(0.83)" gradientUnits="userSpaceOnUse"><stop offset="0" stop-color="#fefefe"/><stop offset="1" stop-color="#dcddde"/></linearGradient><linearGradient id="linear-gradient-2" x1="-6242.33" y1="-8430.16" x2="-6211.38" y2="-8386.65" gradientTransform="translate(-5086.24 -6821.57) rotate(180) scale(0.83)" gradientUnits="userSpaceOnUse"><stop offset="0" stop-color="#e0e1e2"/><stop offset="1" stop-color="#c7c9cb"/></linearGradient><linearGradient id="linear-gradient-3" x1="-6441.96" y1="-8402.5" x2="-6078.82" y2="-8402.5" xlink:href="#linear-gradient"/><linearGradient id="linear-gradient-4" x1="-6845.59" y1="-8386.98" x2="-6869.82" y2="-8298.16" xlink:href="#linear-gradient"/><linearGradient id="linear-gradient-5" x1="-6512.34" y1="-8238.11" x2="-6086.69" y2="-8238.11" xlink:href="#linear-gradient"/><linearGradient id="linear-gradient-6" x1="-6316.65" y1="-8285.91" x2="-5930.8" y2="-8285.91" xlink:href="#linear-gradient"/><linearGradient id="linear-gradient-7" x1="-6225.26" y1="-8386.17" x2="-6149.67" y2="-8354.54" xlink:href="#linear-gradient-2"/><linearGradient id="linear-gradient-8" x1="-6360.71" y1="-8396.76" x2="-6030.72" y2="-8396.76" xlink:href="#linear-gradient"/><linearGradient id="linear-gradient-9" x1="-6706.74" y1="-8294.94" x2="-6450.38" y2="-8294.94" xlink:href="#linear-gradient"/><linearGradient id="linear-gradient-10" x1="-6693.42" y1="-8294.67" x2="-6451" y2="-8294.67" xlink:href="#linear-gradient"/><linearGradient id="linear-gradient-11" x1="-6300.65" y1="-8243.86" x2="-6276.88" y2="-8312.5" xlink:href="#linear-gradient"/><linearGradient id="linear-gradient-12" x1="-6381.05" y1="-8270.29" x2="-6201.49" y2="-8270.29" xlink:href="#linear-gradient-2"/><linearGradient id="linear-gradient-13" x1="-6132.56" y1="-8315.28" x2="-6164.86" y2="-8321.33" xlink:href="#linear-gradient"/><linearGradient id="linear-gradient-14" x1="-6188.08" y1="-8336.83" x2="-6127.18" y2="-8315.63" xlink:href="#linear-gradient-2"/><linearGradient id="linear-gradient-15" x1="-7005" y1="-8287.17" x2="-6638.43" y2="-8287.17" xlink:href="#linear-gradient"/><linearGradient id="linear-gradient-16" x1="-6983.97" y1="-8278.79" x2="-6637.51" y2="-8278.79" xlink:href="#linear-gradient"/></defs><title>Artboard 8</title><g class="cls-2"><path class="cls-3" d="M235.47,49.71c-11.13,12.07-22.72,23.84-35,35L195.81,89l-4.76,4.18c-3.16,2.81-6.43,5.49-9.66,8.23-6.55,5.37-13.2,10.68-20.07,15.73-27.37,20.35-57.52,38-90.54,51a319.71,319.71,0,0,1-51.55,15.41c-8.89,1.93-17.94,3.27-27.08,4.4-4.58.44-9.17,1-13.79,1.23-2.31.14-4.61.31-6.95.42l-7.2.17c-1.21,0-2.39.06-3.63.07l-3.93-.13q-3.6-.12-7.21-.35-7-.45-14-1.33l-9.89,43.46a270.55,270.55,0,0,0,42,3.5,273.58,273.58,0,0,0,41.32-3.07A286.32,286.32,0,0,0,48.54,223c6.45-1.88,12.76-4.08,19-6.35s12.38-4.79,18.39-7.51A348.44,348.44,0,0,0,153,169.61c2.56-1.92,5.12-3.88,7.62-5.85l7.36-6,3.66-3,3.55-3.07,7.09-6.15c9.21-8.32,18.22-16.74,26.85-25.27,11.53-11.31,22.67-22.67,33.8-33.81.92-1.14,3-3.8,6.14-7.69,4.44-5.09,10.52-12.68,18.72-20.92s17.76-17.94,29.06-27.22A315.39,315.39,0,0,1,334.12,3.9c1.7-1,3.35-2,5.08-3L344.37-2l1.29-.72c.43-.23.91-.46,1.36-.69l2.63-1.31c1.75-.85,3.51-1.68,5.26-2.49a206.79,206.79,0,0,1,21.14-8.4,198.75,198.75,0,0,1,39.26-8.77c3.31-.42,6.48-.67,9.47-.82a221.54,221.54,0,0,0-53.6,6.36,293.83,293.83,0,0,0-35,10.91c-5.73,2.15-11.38,4.52-17,7C316.4.35,313.63,1.69,310.84,3s-5.61,2.6-8.3,4.08C280.63,18.41,259.94,32,240.28,46.21Q237.86,47.95,235.47,49.71Z"/><path class="cls-4" d="M-27.51,158.42a198,198,0,0,0,30.17,2.17,218.36,218.36,0,0,0,31-2.36c5.19-.72,10.37-1.74,15.57-2.8s10.38-2.37,15.54-3.86a292.25,292.25,0,0,0,60.46-24.82c2.43-1.34,4.84-2.68,7.26-4.09l7.24-4.34,3.63-2.18,3.59-2.32,7.2-4.62c9.54-6.42,19-13,28.52-20,17.41-12.76,34.82-26.3,52.84-39.44l.54-.59a537.52,537.52,0,0,1-67.79,41.93l.13,0-2.92,1.81c-1.91,1.16-4.67,3-8.27,5.08a322,322,0,0,1-30.93,15.66l-5,2.17-5.29,2.16c-1.8.72-3.62,1.5-5.49,2.22l-5.71,2.16-2.93,1.11-3,1-6.1,2.08c-2.06.68-4.18,1.29-6.31,1.93s-4.27,1.3-6.47,1.83L73.26,132c-2.23.57-4.51,1-6.79,1.53-4.55,1.06-9.24,1.78-13.94,2.62-2.36.36-4.74.65-7.13,1l-3.58.47-3.61.34c-2.42.21-4.83.47-7.25.64l-7.3.37a223,223,0,0,1-29.06-1c-2.39-.25-4.78-.44-7.16-.81s-4.69-.73-7-1.16-4.61-.89-6.87-1.39-4.5-1.1-6.72-1.64a167.8,167.8,0,0,1-24.91-8.58A185.3,185.3,0,0,1-79,113.53,140.31,140.31,0,0,1-104.26,94l-44.91,65.76a232.16,232.16,0,0,0,55.25,22.53A227.24,227.24,0,0,0-65,187.9l.5.06,8.26-36.26A188.26,188.26,0,0,0-27.51,158.42Z"/><path class="cls-5" d="M-43.35,189.64l3.93.13c1.24,0,2.42-.05,3.63-.07l7.2-.17c2.34-.11,4.64-.28,7-.42,4.62-.22,9.21-.79,13.79-1.23,9.14-1.13,18.19-2.47,27.08-4.4a319.71,319.71,0,0,0,51.55-15.41c33-13,63.17-30.62,90.54-51,6.87-5,13.52-10.36,20.07-15.73,3.23-2.74,6.5-5.42,9.66-8.23L195.81,89l4.68-4.25c12.26-11.16,23.85-22.93,35-35-18,13.14-35.43,26.68-52.84,39.44-9.47,7-19,13.63-28.52,20l-7.2,4.62-3.59,2.32-3.63,2.18-7.24,4.34c-2.42,1.41-4.83,2.75-7.26,4.09a292.25,292.25,0,0,1-60.46,24.82c-5.16,1.49-10.36,2.7-15.54,3.86s-10.38,2.08-15.57,2.8a218.36,218.36,0,0,1-31,2.36,198,198,0,0,1-30.17-2.17,188.26,188.26,0,0,1-28.76-6.72L-64.53,188q7,.89,14,1.33Q-46.94,189.52-43.35,189.64Z"/><path class="cls-6" d="M421.27,6.7c-1.09.63-2.15,1.27-3.24,1.88l-3.3,1.85c-2.26,1.26-4.5,2.56-6.73,3.87q-6.67,4-13.14,8.19c-8.62,5.65-17,11.62-25,18a181.69,181.69,0,0,0-22.33,20.95,179.22,179.22,0,0,1,25.19-16.72c8.15-4.54,16.55-8.64,25-12.41l-.76.28,3.23-1.52c2.1-1,5.19-2.41,9.15-4.18,8-3.42,19.35-8.42,33.48-13.21,3.53-1.19,7.22-2.41,11.07-3.58l12-3.5c2-.62,4.17-1.12,6.29-1.69s4.28-1.16,6.48-1.63l6.71-1.39c1.13-.22,2.26-.49,3.41-.67l3.46-.54c2.32-.36,4.65-.77,7-1.09l7.15-.8c1.21-.12,2.41-.29,3.62-.37l3.64-.25c2.44-.14,4.89-.36,7.35-.44,4.92-.12,9.89-.33,14.87-.18l3.74.05,1.88,0,1.87.09,7.49.38c2.5.15,5,.44,7.47.66l3.73.34c1.24.12,2.47.31,3.71.45l7.39,1,7.3,1.18,3.63.6,3.6.71c2.39.47,4.77.93,7.12,1.42l7,1.62c1.16.28,2.32.53,3.46.83l3.4.9,6.72,1.8,6.52,2,3.21,1,3.15,1,6.17,2.08c4,1.45,7.9,3,11.67,4.39s7.44,2.7,10.81,4.33a283.23,283.23,0,0,1,26.3,13.14c30.66,16.63,57.48,38.56,78.28,64.23l58.22-57.39-6.66-5.62c-1.11-.93-2.21-1.87-3.34-2.78L806.3,33.3c-2.29-1.76-4.54-3.57-6.87-5.27l-7-5A322.88,322.88,0,0,0,763.35,4.83l-3.72-2.07c-1.24-.7-2.52-1.31-3.77-2L748.3-3.07l-7.66-3.6c-1.28-.59-2.55-1.2-3.84-1.77l-3.88-1.65c-10.29-4.52-20.83-8.29-31.4-11.73l-8-2.44c-2.65-.81-5.34-1.48-8-2.22-5.32-1.51-10.73-2.65-16.08-3.93L661.37-32l-4-.79-4.06-.67c-2.71-.44-5.41-.92-8.11-1.31L637-35.89c-10.84-1.29-21.68-2.21-32.53-2.49-5.4-.25-10.83-.16-16.22-.18-2.7,0-5.4.15-8.09.23l-4,.13-4,.25-8,.52-8,.77c-2.67.23-5.33.59-8,.93s-5.31.64-8,1.08l-7.91,1.28-2,.32-2,.39-3.93.77c-5.23.95-10.41,2.22-15.58,3.41-2.59.62-5.15,1.35-7.71,2l-3.84,1c-1.27.35-2.54.76-3.81,1.13L485.81-22l-7.51,2.55c-1.24.43-2.5.83-3.73,1.29l-3.71,1.4c-2.47,1-4.94,1.85-7.39,2.83-4.89,2-9.68,4.06-14.44,6.26Q434.78-1.12,421.27,6.7Z"/><path class="cls-7" d="M171-30.5c-2.63,4.1-5.45,8.58-8.56,13.24-.78,1.16-1.58,2.33-2.42,3.54l-2.55,3.56C155.69-7.78,153.88-5.38,152-3s-3.82,4.84-5.84,7.25-4.23,4.83-6.39,7.22-4.42,4.7-6.66,7.07-4.56,4.65-6.9,6.94A267,267,0,0,1,96.61,50.14a207.68,207.68,0,0,1-29,17c-8.82,4.4-16.75,6.72-22.11,8.57-2.76.76-5,1.28-6.42,1.67L36.82,78l.14-.08-4.51,1.6c-.94.35-1.9.62-2.86.91l-2.87.86c-3.83,1.25-7.73,2.11-11.64,3.1a168.31,168.31,0,0,1-24,3.68l-3,.26c-1,.11-2,.08-3.05.13l-6.14.18c-2,0-4.08-.11-6.14-.16l-3.09-.09c-1,0-2-.17-3.07-.26l-6.18-.57c-2-.29-4.09-.63-6.15-.94l-3.09-.49-3-.67L-58,84.07l5.74,2.59,2.89,1.3,3,1.11c2,.74,4,1.5,6,2.22l6.11,1.86c1,.3,2,.64,3.07.9l3.12.75c2.08.48,4.17,1,6.27,1.45l6.35,1.13c1.06.16,2.13.41,3.2.51l3.21.39a181.68,181.68,0,0,0,26,1.32c4.35-.18,8.75-.26,13.1-.73l3.28-.29c1.09-.1,2.2-.18,3.28-.35l6.53-.89c2.2-.26,4.34-.72,6.52-1.1l3.25-.6c1.09-.2,2.18-.39,3.25-.65,4.3-1,8.65-1.91,12.9-3.17a244.74,244.74,0,0,0,25.35-8.48q6.19-2.49,12.28-5.27c2-.92,4-1.89,6-2.88l6-3c7.85-4.14,15.69-8.44,23.21-13.18a421.8,421.8,0,0,0,43.25-30.91c13.77-11.07,26.8-22.82,39.45-34.79,3.14-3,6.29-6,9.38-9L243-24.55c5.79-5.59,11.49-10.87,17.16-15.71A188.72,188.72,0,0,1,277-53.13,114.86,114.86,0,0,1,293.6-62.3l-43.14-69.45a197.06,197.06,0,0,0-23.59,20.66,264.73,264.73,0,0,0-19,22c-5.71,7.38-10.92,14.73-15.85,21.94L185.15-57c-.65,1.37-1.58,3.35-2.77,5.84C179.7-46.12,176.19-38.73,171-30.5Z"/><path class="cls-8" d="M-168.45,45.79c1.64,1.31,3.32,2.57,5,3.79.85.62,1.71,1.21,2.57,1.81l2.61,1.71c1.74,1.13,3.47,2.29,5.27,3.31L-150.3,58l1.34.78,1.37.73a162.41,162.41,0,0,0,45.73,16.37,195.75,195.75,0,0,0,47.09,3.57A228.12,228.12,0,0,0-8.92,72.8,234.33,234.33,0,0,0,34.26,57.45l5.14-2.52,5-2.67L47,50.92l2.47-1.43c1.64-1,3.29-1.88,4.91-2.87,3.2-2,6.44-4,9.54-6.16,1.55-1.08,3.14-2.08,4.65-3.22l4.56-3.35A220.2,220.2,0,0,0,132-32.77a215.48,215.48,0,0,1-64,59L63.24,29c-1.54.94-3.16,1.74-4.74,2.61-3.15,1.76-6.42,3.29-9.63,4.89-1.63.77-3.28,1.48-4.92,2.22l-2.45,1.1-2.49,1-2.2.89.25,0L31.2,44.23l-3.13,1.26-3.7,1.42L20.13,48.5c-1.5.51-3.1,1-4.77,1.53A231.12,231.12,0,0,1-7.76,56.11,214.08,214.08,0,0,1-35,59.61a184,184,0,0,1-27.55-.8c-2.19-.24-4.33-.61-6.42-.92l-3.1-.49c-1-.19-2-.43-3-.64l-5.73-1.28c-1.84-.44-3.59-1-5.29-1.44s-3.31-.91-4.82-1.42L-95.2,51l-3.71-1.43c-1.14-.47-2.16-1-3.09-1.37l-5.77-2.75,6.16,1.64c.92.26,1.93.57,3,.84a130.34,130.34,0,0,1-32.35-16l-1-.68-1-.72-1.95-1.45c-1.33-.93-2.56-2-3.82-3l-1.87-1.52L-142.38,23c-1.19-1.07-2.36-2.15-3.49-3.27A110.24,110.24,0,0,1-158.29,5.27l-28.52,23.24A145.64,145.64,0,0,0-168.45,45.79Z"/><path class="cls-9" d="M-69.85,114.92a158.24,158.24,0,0,0,19,8.08q4.92,1.73,10,3.15c1.69.48,3.41.93,5.13,1.36l2.25.58c.83.17,1.72.32,2.58.49l5.23,1c1.8.29,3.66.53,5.49.8,3.68.61,7.39.89,11.12,1.33,7.45.61,15,1.08,22.6,1a273.23,273.23,0,0,0,46.05-3.95c7.7-1.36,15.44-2.89,23.12-4.86,3.86-.9,7.67-2,11.52-3.06,1.93-.52,3.82-1.14,5.74-1.71s3.84-1.13,5.73-1.79a396.77,396.77,0,0,0,45.14-17.78q8.76-4,17.38-8.5l-3.06,1.2c-2.09.8-5.11,2-9,3.5-7.7,3.13-19,6.83-32.38,11.38l-5.13,1.72c-1.75.56-3.55,1.09-5.37,1.65s-3.67,1.14-5.56,1.67L102,113.76l-2.94.81-3,.76-6.08,1.54c-2,.51-4.14,1-6.24,1.46s-4.2,1-6.35,1.44l-6.48,1.33c-2.18.45-4.39.79-6.6,1.2-4.41.87-8.92,1.42-13.44,2.13-2.27.3-4.55.53-6.83.8l-3.43.4-3.45.26c-2.31.17-4.61.38-6.92.52l-6.94.25c-2.31.17-4.62.13-6.93.16l-3.47,0-1.73,0-1.72-.06-6.89-.24c-1.15,0-2.29-.12-3.42-.21l-3.4-.27c-2.27-.19-4.52-.3-6.74-.59s-4.46-.55-6.66-.88-4.39-.67-6.56-1.05-4.31-.83-6.44-1.22c-16.94-3.6-32.48-8.65-45-14.88a191,191,0,0,1-28.69-17l-.07,0-.51-.34-11.15-6.89,9.73,8.81.47.4-.07-.06,1.73,1.66,1.2-1.75A155.23,155.23,0,0,0-69.85,114.92Z"/><path class="cls-10" d="M-58.07,124.29a167.8,167.8,0,0,0,24.91,8.58c2.22.54,4.45,1.13,6.72,1.64s4.56,1,6.87,1.39,4.66.81,7,1.16,4.77.56,7.16.81a223,223,0,0,0,29.06,1l7.3-.37c2.42-.17,4.83-.43,7.25-.64l3.61-.34,3.58-.47c2.39-.33,4.77-.62,7.13-1,4.7-.84,9.39-1.56,13.94-2.62,2.28-.51,4.56-1,6.79-1.53l6.63-1.73c2.2-.53,4.34-1.2,6.47-1.83s4.25-1.25,6.31-1.93l6.1-2.08,3-1,2.93-1.11,5.71-2.16c1.87-.72,3.69-1.5,5.49-2.22l5.29-2.16,5-2.17a322,322,0,0,0,30.93-15.66c3.6-2.13,6.36-3.92,8.27-5.08L168.35,91l-.13,0q-8.62,4.44-17.38,8.5a396.77,396.77,0,0,1-45.14,17.78c-1.89.66-3.82,1.2-5.73,1.79s-3.81,1.19-5.74,1.71c-3.85,1-7.66,2.16-11.52,3.06-7.68,2-15.42,3.5-23.12,4.86a273.23,273.23,0,0,1-46.05,3.95c-7.6.07-15.15-.4-22.6-1-3.73-.44-7.44-.72-11.12-1.33-1.83-.27-3.69-.51-5.49-.8l-5.23-1c-.86-.17-1.75-.32-2.58-.49l-2.25-.58c-1.72-.43-3.44-.88-5.13-1.36q-5.1-1.43-10-3.15a158.24,158.24,0,0,1-19-8.08,155.23,155.23,0,0,1-33.21-22.67l-1.2,1.75A140.31,140.31,0,0,0-79,113.53,185.3,185.3,0,0,0-58.07,124.29Z"/><path class="cls-11" d="M443.2-24.13A207.81,207.81,0,0,0,374.26-9,279.59,279.59,0,0,0,342.62,6c-5.12,2.8-10.12,5.81-15.08,8.87-2.45,1.57-4.85,3.19-7.27,4.78s-4.84,3.15-7.16,4.91c-18.88,13.47-36.34,28.81-53.22,45.19-5.69,5.48-11.32,11.06-17,16.69l-.51.65,8.33-6.63C255.87,76.1,263.61,70.3,272.44,63S292,47.62,303.5,39.15s23.95-17.09,37-24.76c1.61-1,3.21-2,4.82-2.94l4.85-2.81,1.2-.71c.4-.23.79-.42,1.18-.63L355,6q2.49-1.27,5-2.51c6.64-3.29,13.3-6.26,19.82-9,13.06-5.3,25.6-9.59,36.69-12.1,5.54-1.25,10.65-2.33,15.22-3.22,2.29-.41,4.44-.8,6.43-1.11s3.84-.56,5.51-.73l4.46-.58c1.3-.16,2.41-.26,3.32-.35l2.77-.28-2.77-.34c-.9-.11-2-.27-3.33-.4L443.59-25,438-25.23c-2.06-.07-4.28-.1-6.67-.12-2.05,0-4.23.08-6.51.19Q434-25.08,443.2-24.13Z"/><path class="cls-12" d="M376.05-15.57a206.79,206.79,0,0,0-21.14,8.4c-1.75.81-3.51,1.64-5.26,2.49L347-3.37c-.45.23-.93.46-1.36.69L344.37-2,339.2.92c-1.73,1-3.38,2-5.08,3a315.39,315.39,0,0,0-37.27,26.74c-11.3,9.28-20.85,19-29.06,27.22s-14.28,15.83-18.72,20.92c-3.1,3.89-5.22,6.55-6.14,7.69,5.64-5.63,11.27-11.21,17-16.69,16.88-16.38,34.34-31.72,53.22-45.19,2.32-1.76,4.75-3.31,7.16-4.91s4.82-3.21,7.27-4.78c5-3.06,10-6.07,15.08-8.87A279.59,279.59,0,0,1,374.26-9,207.81,207.81,0,0,1,443.2-24.13q-9.15-1-18.42-1c-3,.15-6.16.4-9.47.82A198.75,198.75,0,0,0,376.05-15.57Z"/><path class="cls-13" d="M124.52,10.06c-2.28,2.2-4.53,4.44-6.85,6.61-9,8.9-18.53,17.28-27.62,24.89S72.18,56,64.18,61.19s-14.7,9.63-19.64,12.36c-2.42,1.45-4.37,2.52-5.69,3.29L37,77.91l1.14-.4c1.88-.62,3.72-1.43,5.57-2.17l2.76-1.12c.92-.37,1.84-.72,2.74-1.16,3.61-1.68,7.23-3.24,10.73-5.12A212.18,212.18,0,0,0,80.28,56.09q4.93-3.27,9.69-6.76c1.59-1.15,3.15-2.37,4.7-3.59l4.66-3.62c6.09-5,12.08-10.11,17.76-15.6A376.24,376.24,0,0,0,149.31-8.32c1.27-1.52,2.51-3.08,3.76-4.64l3.72-4.68,3.65-4.75,1.83-2.37,1.79-2.42L167.65-32l3.53-4.89c2.36-3.23,4.66-6.57,7-9.86s4.59-6.66,6.86-10l.13-.19c.68-1.46,1-2.25,1-2.25s-2.08,2.5-5.8,6.79c-3.5,4.44-9,10.44-15,17.9-3,3.74-6.43,7.69-10.07,11.81-.91,1-1.82,2.05-2.75,3.09l-2.87,3.15q-2.91,3.19-5.93,6.52l-6.18,6.67c-2,2.24-4.24,4.39-6.4,6.64S126.74,7.81,124.52,10.06Z"/><path class="cls-14" d="M178.16-46.75c-2.32,3.29-4.62,6.63-7,9.86L167.65-32l-3.59,4.82-1.79,2.42-1.83,2.37-3.65,4.75L153.07-13c-1.25,1.56-2.49,3.12-3.76,4.64a376.24,376.24,0,0,1-32.22,34.84c-5.68,5.49-11.67,10.57-17.76,15.6l-4.66,3.62C93.12,47,91.56,48.18,90,49.33q-4.75,3.49-9.69,6.76A212.18,212.18,0,0,1,59.9,67.94c-3.5,1.88-7.12,3.44-10.73,5.12-.9.44-1.82.79-2.74,1.16l-2.76,1.12c-1.85.74-3.69,1.55-5.57,2.17l-1.14.4-.14.08,2.26-.57c1.47-.39,3.66-.91,6.42-1.67,5.36-1.85,13.29-4.17,22.11-8.57a207.68,207.68,0,0,0,29-17,267,267,0,0,0,29.58-24.65c2.34-2.29,4.62-4.63,6.9-6.94s4.49-4.68,6.66-7.07,4.36-4.74,6.39-7.22S150.11-.58,152-3s3.71-4.79,5.45-7.17L160-13.72c.84-1.21,1.64-2.38,2.42-3.54,3.11-4.66,5.93-9.14,8.56-13.24,5.23-8.23,8.74-15.62,11.42-20.62,1.19-2.49,2.12-4.47,2.77-5.84l-.13.19C182.75-53.41,180.46-50.08,178.16-46.75Z"/><path class="cls-15" d="M-54.57,56.44a207.33,207.33,0,0,0,42.11-1.69A217.85,217.85,0,0,0,29,44.7l5-1.85,2.78-1.12-6,1.36c-1,.25-2.06.53-3.26.79l-3.86.82-4.37,1c-1.55.32-3.17.64-4.85,1-6.73,1.57-14.7,2.73-23.17,4.1C-17.18,52-26.25,53-35.36,53.49a253.56,253.56,0,0,1-26.75-.05c-2.13-.14-4.22-.36-6.27-.51l-3.05-.23c-1-.09-2-.24-3-.36l-5.68-.7c-1.83-.26-3.57-.64-5.26-1s-3.32-.58-4.86-.89l-4.35-1L-98.39,48l-.19,0c1.15.4,2.31.79,3.47,1.16A170.76,170.76,0,0,0-54.57,56.44Z"/><path class="cls-16" d="M-107.77,45.47l5.77,2.75c.93.4,2,.9,3.09,1.37L-95.2,51l4.26,1.6c1.51.51,3.13.94,4.82,1.42s3.45,1,5.29,1.44l5.73,1.28c1,.21,2,.45,3,.64l3.1.49c2.09.31,4.23.68,6.42.92a184,184,0,0,0,27.55.8,214.08,214.08,0,0,0,27.27-3.5A231.12,231.12,0,0,0,15.36,50c1.67-.52,3.27-1,4.77-1.53l4.24-1.59,3.7-1.42,3.13-1.26,5.86-2.55-.25,0L34,42.85,29,44.7a217.85,217.85,0,0,1-41.45,10,207.33,207.33,0,0,1-42.11,1.69,170.76,170.76,0,0,1-40.54-7.33c-1.16-.37-2.32-.76-3.47-1.16s-2.11-.58-3-.84Z"/><path class="cls-17" d="M672.32,31.9c-2.05-1-4.17-1.95-6.26-2.94-4.17-2-8.48-3.69-12.75-5.53l-6.52-2.5-3.27-1.25-3.3-1.14c-2.21-.75-4.41-1.55-6.64-2.27l-6.72-2.08c-9-2.65-18.14-5-27.43-6.86-4.63-1-9.32-1.72-14-2.55-2.34-.36-4.7-.66-7.06-1l-3.55-.49-3.55-.37-7.13-.74L557,1.66c-2.39-.21-4.78-.29-7.18-.38S545,1,542.58,1L535.37,1l-1.81,0L531.75,1l-3.61.09c-4.84,0-9.65.42-14.49.69-2.41.16-4.82.42-7.24.63l-3.62.34c-1.21.12-2.41.29-3.62.44l-7.24.91-7.21,1.17c-1.2.2-2.41.37-3.61.6l-3.58.7c-2.39.48-4.8.91-7.18,1.43-4.76,1.06-9.56,2.23-14.3,3.52q-14.26,3.84-28.23,9c-1.2.44-2.41.92-3.63,1.36l-3.61,1.28q-3.51,1.26-7,2.6-7,2.67-13.86,5.67l-2,.88,2.58-1c2.19-.79,5.39-1.95,9.49-3.36,8.14-2.95,19.9-6.8,34.08-11,3.54-1.05,7.25-2.11,11.11-3.09L467,11c2.05-.53,4.15-.92,6.26-1.4s4.25-1,6.43-1.36l6.6-1.15c1.11-.18,2.21-.42,3.34-.56l3.4-.46c2.28-.29,4.57-.63,6.88-.89l7-.65c1.18-.09,2.35-.25,3.54-.3L514.05,4c2.39-.11,4.78-.3,7.19-.36,4.82-.06,9.67-.23,14.55,0l3.66.07,1.84,0,1.83.11,7.33.42c2.45.13,4.89.4,7.33.59l3.65.32c1.22.1,2.43.28,3.65.42l7.26.87,7.18,1.09,3.58.55,3.54.65,7,1.29,6.91,1.46c1.14.25,2.28.47,3.41.73l3.38.8L614,14.65l6.5,1.72,3.2.85,3.15.91,6.17,1.79c4,1.25,7.93,2.59,11.72,3.82s7.48,2.35,10.86,3.83c13.76,5.34,25,10.43,32.8,14.27,3.9,1.88,6.94,3.41,9,4.48L700.6,48l-3-1.91c-2-1.24-4.86-3-8.6-5.25l-5.77-3.27c-1.57-.85-3.14-1.7-4.73-2.52Z"/><path class="cls-18" d="M646.11,20.06c-3.77-1.41-7.64-2.94-11.67-4.39l-6.17-2.08-3.15-1-3.21-1-6.52-2-6.72-1.8-3.4-.9c-1.14-.3-2.3-.55-3.46-.83l-7-1.62c-2.35-.49-4.73-1-7.12-1.42l-3.6-.71-3.63-.6L573.17.55,565.78-.4c-1.24-.14-2.47-.33-3.71-.45l-3.73-.34c-2.49-.22-5-.51-7.47-.66l-7.49-.38-1.87-.09-1.88,0-3.74-.05c-5-.15-9.95.06-14.87.18-2.46.08-4.91.3-7.35.44L510-1.54c-1.21.08-2.41.25-3.62.37l-7.15.8c-2.36.32-4.69.73-7,1.09l-3.46.54c-1.15.18-2.28.45-3.41.67l-6.71,1.39c-2.2.47-4.34,1.1-6.48,1.63S467.94,6,465.9,6.64l-12,3.5c-3.85,1.17-7.54,2.39-11.07,3.58-14.13,4.79-25.51,9.79-33.48,13.21-4,1.77-7.05,3.21-9.15,4.18L397,32.63l.76-.28,2-.88q6.88-3,13.86-5.67,3.5-1.34,7-2.6l3.61-1.28c1.22-.44,2.43-.92,3.63-1.36q13.95-5.17,28.23-9c4.74-1.29,9.54-2.46,14.3-3.52,2.38-.52,4.79-1,7.18-1.43l3.58-.7c1.2-.23,2.41-.4,3.61-.6l7.21-1.17,7.24-.91c1.21-.15,2.41-.32,3.62-.44l3.62-.34c2.42-.21,4.83-.47,7.24-.63,4.84-.27,9.65-.64,14.49-.69L531.75,1,533.56,1l1.81,0,7.21.05c2.4,0,4.81.17,7.21.25s4.79.17,7.18.38l7.16.52,7.13.74,3.55.37,3.55.49c2.36.34,4.72.64,7.06,1,4.69.83,9.38,1.53,14,2.55,9.29,1.82,18.43,4.21,27.43,6.86l6.72,2.08c2.23.72,4.43,1.52,6.64,2.27l3.3,1.14,3.27,1.25,6.52,2.5c4.27,1.84,8.58,3.52,12.75,5.53,2.09,1,4.21,1.9,6.26,2.94L678.49,35c1.59.82,3.16,1.67,4.73,2.52a283.23,283.23,0,0,0-26.3-13.14C653.55,22.76,649.86,21.53,646.11,20.06Z"/></g></svg>